<svg xmlns="http://www.w3.org/2000/svg" xmlns:xlink="http://www.w3.org/1999/xlink" style="display: none;">
		<symbol id="menu-burger" viewBox="0 0 448 512">
			<desc>Menu-burger</desc>
			<path fill="#FFFFFF" d="M16 132h416c8.837 0 16-7.163 16-16V76c0-8.837-7.163-16-16-16H16C7.163 60 0 67.163 0 76v40c0 8.837 7.163 16 16 16zm0 160h416c8.837 0 16-7.163 16-16v-40c0-8.837-7.163-16-16-16H16c-8.837 0-16 7.163-16 16v40c0 8.837 7.163 16 16 16zm0 160h416c8.837 0 16-7.163 16-16v-40c0-8.837-7.163-16-16-16H16c-8.837 0-16 7.163-16 16v40c0 8.837 7.163 16 16 16z"></path>
		</symbol>
		<symbol id="fb" viewBox="0 0 48 48">
			<desc>Facebook</desc>
			<path d="M21.1 7.8C22.5 6.5 24.5 6 26.4 6h6v6.3h-3.9c-.8-.1-1.6.6-1.8 1.4v4.2h5.7c-.1 2-.4 4.1-.7 6.1h-5v18h-7.4V24h-3.6v-6h3.6v-5.9c.1-1.7.7-3.3 1.8-4.3z"></path>
		</symbol>
		<symbol id="youtube" viewBox="0 0 48 48">
			<desc>Youtube</desc>
			<path d="M43.9 15.3c-.4-3.1-2.2-5-5.3-5.3-3.6-.3-11.4-.5-15-.5-7.3 0-10.6.2-14.1.5-3.3.3-4.8 1.8-5.4 4.9-.4 2.1-.6 4.1-.6 8.9 0 4.3.2 6.9.5 9.2.4 3.1 2.5 4.8 5.7 5.1 3.6.3 10.9.5 14.4.5s11.2-.2 14.7-.6c3.1-.4 4.6-2 5.1-5.1 0 0 .5-3.3.5-9.1 0-3.3-.2-6.4-.5-8.5zM19.7 29.8V18l11.2 5.8-11.2 6z"></path>
		</symbol>
		<symbol id="instagram" viewBox="0 0 448 512">
			<desc>Instagram</desc>
			<!-- <path d="M16.396,3.312H8.604c-2.921,0-5.292,2.371-5.292,5.273v7.846c0,2.886,2.371,5.256,5.292,5.256h7.791c2.922,0,5.292-2.37,5.292-5.274V8.586C21.688,5.683,19.317,3.312,16.396,3.312L16.396,3.312z M7.722,12.5c0-2.64,2.142-4.778,4.778-4.778c2.636,0,4.777,2.138,4.777,4.778s-2.142,4.777-4.777,4.777C9.864,17.277,7.722,15.14,7.722,12.5zM17.756,8.182c-0.615,0-1.104-0.487-1.104-1.102s0.488-1.103,1.104-1.103c0.614,0,1.102,0.488,1.102,1.103S18.37,8.182,17.756,8.182L17.756,8.182z"></path>
			<path d="M12.5,9.376c-1.731,0-3.124,1.398-3.124,3.124c0,1.725,1.393,3.124,3.124,3.124c1.732,0,3.124-1.399,3.124-3.124C15.624,10.775,14.211,9.376,12.5,9.376L12.5,9.376z"></path> -->
			<path fill="#FFFFFF" d="M224.1 141c-63.6 0-114.9 51.3-114.9 114.9s51.3 114.9 114.9 114.9S339 319.5 339 255.9 287.7 141 224.1 141zm0 189.6c-41.1 0-74.7-33.5-74.7-74.7s33.5-74.7 74.7-74.7 74.7 33.5 74.7 74.7-33.6 74.7-74.7 74.7zm146.4-194.3c0 14.9-12 26.8-26.8 26.8-14.9 0-26.8-12-26.8-26.8s12-26.8 26.8-26.8 26.8 12 26.8 26.8zm76.1 27.2c-1.7-35.9-9.9-67.7-36.2-93.9-26.2-26.2-58-34.4-93.9-36.2-37-2.1-147.9-2.1-184.9 0-35.8 1.7-67.6 9.9-93.9 36.1s-34.4 58-36.2 93.9c-2.1 37-2.1 147.9 0 184.9 1.7 35.9 9.9 67.7 36.2 93.9s58 34.4 93.9 36.2c37 2.1 147.9 2.1 184.9 0 35.9-1.7 67.7-9.9 93.9-36.2 26.2-26.2 34.4-58 36.2-93.9 2.1-37 2.1-147.8 0-184.8zM398.8 388c-7.8 19.6-22.9 34.7-42.6 42.6-29.5 11.7-99.5 9-132.1 9s-102.7 2.6-132.1-9c-19.6-7.8-34.7-22.9-42.6-42.6-11.7-29.5-9-99.5-9-132.1s-2.6-102.7 9-132.1c7.8-19.6 22.9-34.7 42.6-42.6 29.5-11.7 99.5-9 132.1-9s102.7-2.6 132.1 9c19.6 7.8 34.7 22.9 42.6 42.6 11.7 29.5 9 99.5 9 132.1s2.7 102.7-9 132.1z"></path>
		</symbol>
		<symbol id="telegram" viewBox="0 0 60 60">
			<desc>Telegram</desc>
			<path d="M52.5,9L6.1,26.9c-0.9,0.4-0.9,1.8,0,2.3l11.9,4.9l4.4,14.1c0.3,0.8,1.2,1,1.8,0.5l6.8-6.4l12.9,8.7c0.7,0.4,1.6,0,1.7-0.7L54,10.3C54.2,9.5,53.3,8.7,52.5,9z M24.5,36.7L23.8,44l-3.6-11.2l25.3-16.8L24.5,36.7z"></path>
		</symbol>

		<!-- <symbol id="fb-square" viewBox="0 0 448 512">
			<desc>Facebook-footer-icon</desc>
			<path 
        		d="M400 32H48A48 48 0 0 0 0 80v352a48 48 0 0 0 48 48h137.25V327.69h-63V256h63v-54.64c0-62.15 37-96.48 93.67-96.48 27.14 0 55.52 4.84 55.52 4.84v61h-31.27c-30.81 0-40.42 19.12-40.42 38.73V256h68.78l-11 71.69h-57.78V480H400a48 48 0 0 0 48-48V80a48 48 0 0 0-48-48z">
			</path>
		</symbol> -->


		<!-- <symbol id="facebook-footer" viewBox="0 0 408.788 408.788">
			<desc>Facebook-footer-icon</desc>
			<path style="fill:#475993;" d="M353.701,0H55.087C24.665,0,0.002,24.662,0.002,55.085v298.616c0,30.423,24.662,55.085,55.085,55.085
				h147.275l0.251-146.078h-37.951c-4.932,0-8.935-3.988-8.954-8.92l-0.182-47.087c-0.019-4.959,3.996-8.989,8.955-8.989h37.882
				v-45.498c0-52.8,32.247-81.55,79.348-81.55h38.65c4.945,0,8.955,4.009,8.955,8.955v39.704c0,4.944-4.007,8.952-8.95,8.955
				l-23.719,0.011c-25.615,0-30.575,12.172-30.575,30.035v39.389h56.285c5.363,0,9.524,4.683,8.892,10.009l-5.581,47.087
				c-0.534,4.506-4.355,7.901-8.892,7.901h-50.453l-0.251,146.078h87.631c30.422,0,55.084-24.662,55.084-55.084V55.085
				C408.786,24.662,384.124,0,353.701,0z"/>
		</symbol>
		<symbol id="youtube-footer" viewBox="0 -77 512.00213 512">
			<desc>Youtube-footer</desc>
				<path d="m501.453125 56.09375c-5.902344-21.933594-23.195313-39.222656-45.125-45.128906-40.066406-10.964844-200.332031-10.964844-200.332031-10.964844s-160.261719 0-200.328125 10.546875c-21.507813 5.902344-39.222657 23.617187-45.125 45.546875-10.542969 40.0625-10.542969 123.148438-10.542969 123.148438s0 83.503906 10.542969 123.148437c5.90625 21.929687 23.195312 39.222656 45.128906 45.128906 40.484375 10.964844 200.328125 10.964844 200.328125 10.964844s160.261719 0 200.328125-10.546875c21.933594-5.902344 39.222656-23.195312 45.128906-45.125 10.542969-40.066406 10.542969-123.148438 10.542969-123.148438s.421875-83.507812-10.546875-123.570312zm0 0" fill="#f00"/>
				<path d="m204.96875 256 133.269531-76.757812-133.269531-76.757813zm0 0" fill="#fff"/>
		</symbol>
		<symbol id="telegram-footer" viewBox="0 0 496 512">
			<desc>Telegram-footer</desc>
			<path fill="#65AADD" d="M248 8C111 8 0 119 0 256s111 248 248 248 248-111 248-248S385 8 248 8zm121.8 169.9l-40.7 191.8c-3 13.6-11.1 16.9-22.4 10.5l-62-45.7-29.9 28.8c-3.3 3.3-6.1 6.1-12.5 6.1l4.4-63.1 114.9-103.8c5-4.4-1.1-6.9-7.7-2.5l-142 89.4-61.2-19.1c-13.3-4.2-13.6-13.3 2.8-19.7l239.1-92.2c11.1-4 20.8 2.7 17.2 19.5z"></path>
		</symbol> -->
	</svg>
